<?xml version="1.0" encoding="UTF-8" standalone="no"?>
<!DOCTYPE svg PUBLIC "-//W3C//DTD SVG 1.1//EN"
 "http://www.w3.org/Graphics/SVG/1.1/DTD/svg11.dtd">
<!-- Generated by graphviz version 2.43.0 (0)
 -->
<!-- Title: G Pages: 1 -->
<svg width="1125pt" height="452pt"
 viewBox="0.00 0.00 1124.94 451.69" xmlns="http://www.w3.org/2000/svg" xmlns:xlink="http://www.w3.org/1999/xlink">
<g id="graph0" class="graph" transform="scale(1 1) rotate(0) translate(4 447.69)">
<title>G</title><style>.edge>path:hover{stroke-width:8}</style>
<polygon fill="white" stroke="transparent" points="-4,4 -4,-447.69 1120.94,-447.69 1120.94,4 -4,4"/>
<!-- bookify_app -->
<g id="node1" class="node">
<title>bookify_app</title><style>.edge>path:hover{stroke-width:8}</style>
<ellipse fill="#b30404" stroke="black" cx="124.08" cy="-107.42" rx="44.98" ry="18"/>
<text text-anchor="middle" x="124.08" y="-104.92" font-family="Helvetica,sans-Serif" font-size="10.00" fill="#ffffff">bookify_app</text>
</g>
<!-- bookify_app_main -->
<g id="node2" class="node">
<title>bookify_app_main</title><style>.edge>path:hover{stroke-width:8}</style>
<ellipse fill="#cc3333" stroke="black" cx="319.08" cy="-193.62" rx="55.72" ry="21.43"/>
<text text-anchor="middle" x="319.08" y="-196.62" font-family="Helvetica,sans-Serif" font-size="10.00" fill="#ffffff">bookify_app.</text>
<text text-anchor="middle" x="319.08" y="-185.62" font-family="Helvetica,sans-Serif" font-size="10.00" fill="#ffffff">main</text>
</g>
<!-- bookify_app_main&#45;&gt;bookify_app -->
<g id="edge1" class="edge">
<title>bookify_app_main&#45;&gt;bookify_app</title><style>.edge>path:hover{stroke-width:8}</style>
<path fill="none" stroke="black" d="M281.63,-177.74C254.19,-166.69 216.12,-151.07 183.08,-136.41 175.79,-133.18 168.06,-129.61 160.67,-126.13"/>
<polygon fill="#cc3333" stroke="black" points="162.09,-122.93 151.56,-121.81 159.09,-129.26 162.09,-122.93"/>
</g>
<!-- bookify_app_main_views -->
<g id="node3" class="node">
<title>bookify_app_main_views</title><style>.edge>path:hover{stroke-width:8}</style>
<ellipse fill="#9d4343" stroke="black" cx="801.08" cy="-107.42" rx="55.72" ry="28.98"/>
<text text-anchor="middle" x="801.08" y="-115.92" font-family="Helvetica,sans-Serif" font-size="10.00" fill="#ffffff">bookify_app.</text>
<text text-anchor="middle" x="801.08" y="-104.92" font-family="Helvetica,sans-Serif" font-size="10.00" fill="#ffffff">main.</text>
<text text-anchor="middle" x="801.08" y="-93.92" font-family="Helvetica,sans-Serif" font-size="10.00" fill="#ffffff">views</text>
</g>
<!-- bookify_app_models -->
<g id="node4" class="node">
<title>bookify_app_models</title><style>.edge>path:hover{stroke-width:8}</style>
<ellipse fill="#db0505" stroke="black" cx="670.08" cy="-272.05" rx="55.72" ry="21.43"/>
<text text-anchor="middle" x="670.08" y="-275.05" font-family="Helvetica,sans-Serif" font-size="10.00" fill="#ffffff">bookify_app.</text>
<text text-anchor="middle" x="670.08" y="-264.05" font-family="Helvetica,sans-Serif" font-size="10.00" fill="#ffffff">models</text>
</g>
<!-- bookify_app_models&#45;&gt;bookify_app_main_views -->
<g id="edge2" class="edge">
<title>bookify_app_models&#45;&gt;bookify_app_main_views</title><style>.edge>path:hover{stroke-width:8}</style>
<path fill="none" stroke="black" d="M801.08,-192.62C808.87,-178.88 810.08,-161.73 808.88,-146.51"/>
<polygon fill="#db0505" stroke="black" points="812.33,-145.88 807.72,-136.34 805.38,-146.67 812.33,-145.88"/>
</g>
<!-- bookify_app_views_appointment -->
<g id="node6" class="node">
<title>bookify_app_views_appointment</title><style>.edge>path:hover{stroke-width:8}</style>
<ellipse fill="#964040" stroke="black" cx="1061.08" cy="-107.42" rx="55.72" ry="28.98"/>
<text text-anchor="middle" x="1061.08" y="-115.92" font-family="Helvetica,sans-Serif" font-size="10.00" fill="#ffffff">bookify_app.</text>
<text text-anchor="middle" x="1061.08" y="-104.92" font-family="Helvetica,sans-Serif" font-size="10.00" fill="#ffffff">views.</text>
<text text-anchor="middle" x="1061.08" y="-93.92" font-family="Helvetica,sans-Serif" font-size="10.00" fill="#ffffff">appointment</text>
</g>
<!-- bookify_app_models&#45;&gt;bookify_app_views_appointment -->
<g id="edge3" class="edge">
<title>bookify_app_models&#45;&gt;bookify_app_views_appointment</title><style>.edge>path:hover{stroke-width:8}</style>
<path fill="none" stroke="black" d="M708.7,-256.54C738.01,-245.42 779.23,-229.53 815.08,-214.84 883.03,-186.98 960.7,-153.02 1010.27,-131.07"/>
<polygon fill="#db0505" stroke="black" points="1011.78,-134.24 1019.5,-126.98 1008.94,-127.84 1011.78,-134.24"/>
</g>
<!-- bookify_app_views_auth -->
<g id="node7" class="node">
<title>bookify_app_views_auth</title><style>.edge>path:hover{stroke-width:8}</style>
<ellipse fill="#a13535" stroke="black" cx="931.08" cy="-107.42" rx="55.72" ry="28.98"/>
<text text-anchor="middle" x="931.08" y="-115.92" font-family="Helvetica,sans-Serif" font-size="10.00" fill="#ffffff">bookify_app.</text>
<text text-anchor="middle" x="931.08" y="-104.92" font-family="Helvetica,sans-Serif" font-size="10.00" fill="#ffffff">views.</text>
<text text-anchor="middle" x="931.08" y="-93.92" font-family="Helvetica,sans-Serif" font-size="10.00" fill="#ffffff">auth</text>
</g>
<!-- bookify_app_models&#45;&gt;bookify_app_views_auth -->
<g id="edge4" class="edge">
<title>bookify_app_models&#45;&gt;bookify_app_views_auth</title><style>.edge>path:hover{stroke-width:8}</style>
<path fill="none" stroke="black" d="M801.08,-192.62C810.56,-175.89 850.04,-151.56 883.03,-133.36"/>
<polygon fill="#db0505" stroke="black" points="885.03,-136.25 892.13,-128.39 881.68,-130.11 885.03,-136.25"/>
</g>
<!-- bookify_app_views_location -->
<g id="node8" class="node">
<title>bookify_app_views_location</title><style>.edge>path:hover{stroke-width:8}</style>
<ellipse fill="#9d4343" stroke="black" cx="281.08" cy="-107.42" rx="55.72" ry="28.98"/>
<text text-anchor="middle" x="281.08" y="-115.92" font-family="Helvetica,sans-Serif" font-size="10.00" fill="#ffffff">bookify_app.</text>
<text text-anchor="middle" x="281.08" y="-104.92" font-family="Helvetica,sans-Serif" font-size="10.00" fill="#ffffff">views.</text>
<text text-anchor="middle" x="281.08" y="-93.92" font-family="Helvetica,sans-Serif" font-size="10.00" fill="#ffffff">location</text>
</g>
<!-- bookify_app_models&#45;&gt;bookify_app_views_location -->
<g id="edge5" class="edge">
<title>bookify_app_models&#45;&gt;bookify_app_views_location</title><style>.edge>path:hover{stroke-width:8}</style>
<path fill="none" stroke="black" d="M629.05,-257.44C597.16,-246.61 551.95,-230.68 513.08,-214.84 478.38,-200.7 388.31,-158.81 331.15,-132"/>
<polygon fill="#db0505" stroke="black" points="332.46,-128.75 321.92,-127.67 329.49,-135.09 332.46,-128.75"/>
</g>
<!-- bookify_app_views_providers -->
<g id="node9" class="node">
<title>bookify_app_views_providers</title><style>.edge>path:hover{stroke-width:8}</style>
<ellipse fill="#a83838" stroke="black" cx="411.08" cy="-107.42" rx="55.72" ry="28.98"/>
<text text-anchor="middle" x="411.08" y="-115.92" font-family="Helvetica,sans-Serif" font-size="10.00" fill="#ffffff">bookify_app.</text>
<text text-anchor="middle" x="411.08" y="-104.92" font-family="Helvetica,sans-Serif" font-size="10.00" fill="#ffffff">views.</text>
<text text-anchor="middle" x="411.08" y="-93.92" font-family="Helvetica,sans-Serif" font-size="10.00" fill="#ffffff">providers</text>
</g>
<!-- bookify_app_models&#45;&gt;bookify_app_views_providers -->
<g id="edge6" class="edge">
<title>bookify_app_models&#45;&gt;bookify_app_views_providers</title><style>.edge>path:hover{stroke-width:8}</style>
<path fill="none" stroke="black" d="M641.87,-253.33C596.66,-224.95 507.67,-169.07 454.38,-135.6"/>
<polygon fill="#db0505" stroke="black" points="456.15,-132.59 445.82,-130.23 452.43,-138.51 456.15,-132.59"/>
</g>
<!-- bookify_app_views_service -->
<g id="node10" class="node">
<title>bookify_app_views_service</title><style>.edge>path:hover{stroke-width:8}</style>
<ellipse fill="#9d4343" stroke="black" cx="541.08" cy="-107.42" rx="55.72" ry="28.98"/>
<text text-anchor="middle" x="541.08" y="-115.92" font-family="Helvetica,sans-Serif" font-size="10.00" fill="#ffffff">bookify_app.</text>
<text text-anchor="middle" x="541.08" y="-104.92" font-family="Helvetica,sans-Serif" font-size="10.00" fill="#ffffff">views.</text>
<text text-anchor="middle" x="541.08" y="-93.92" font-family="Helvetica,sans-Serif" font-size="10.00" fill="#ffffff">service</text>
</g>
<!-- bookify_app_models&#45;&gt;bookify_app_views_service -->
<g id="edge7" class="edge">
<title>bookify_app_models&#45;&gt;bookify_app_views_service</title><style>.edge>path:hover{stroke-width:8}</style>
<path fill="none" stroke="black" d="M654.52,-251.43C633.14,-224.48 594.37,-175.61 568.18,-142.58"/>
<polygon fill="#db0505" stroke="black" points="570.76,-140.21 561.81,-134.55 565.28,-144.56 570.76,-140.21"/>
</g>
<!-- bookify_app_views_user -->
<g id="node11" class="node">
<title>bookify_app_views_user</title><style>.edge>path:hover{stroke-width:8}</style>
<ellipse fill="#9d4343" stroke="black" cx="671.08" cy="-107.42" rx="55.72" ry="28.98"/>
<text text-anchor="middle" x="671.08" y="-115.92" font-family="Helvetica,sans-Serif" font-size="10.00" fill="#ffffff">bookify_app.</text>
<text text-anchor="middle" x="671.08" y="-104.92" font-family="Helvetica,sans-Serif" font-size="10.00" fill="#ffffff">views.</text>
<text text-anchor="middle" x="671.08" y="-93.92" font-family="Helvetica,sans-Serif" font-size="10.00" fill="#ffffff">user</text>
</g>
<!-- bookify_app_models&#45;&gt;bookify_app_views_user -->
<g id="edge8" class="edge">
<title>bookify_app_models&#45;&gt;bookify_app_views_user</title><style>.edge>path:hover{stroke-width:8}</style>
<path fill="none" stroke="black" d="M713.59,-258.55C744.08,-247.25 782.58,-227.26 801.08,-194.62"/>
<path fill="none" stroke="black" d="M801.08,-192.62C806.19,-183.61 758.01,-154.92 718.87,-133.52"/>
<polygon fill="#db0505" stroke="black" points="720.12,-130.22 709.66,-128.53 716.78,-136.37 720.12,-130.22"/>
</g>
<!-- bookify_app_views -->
<g id="node5" class="node">
<title>bookify_app_views</title><style>.edge>path:hover{stroke-width:8}</style>
<ellipse fill="#d10505" stroke="black" cx="411.08" cy="-21.21" rx="55.72" ry="21.43"/>
<text text-anchor="middle" x="411.08" y="-24.21" font-family="Helvetica,sans-Serif" font-size="10.00" fill="#ffffff">bookify_app.</text>
<text text-anchor="middle" x="411.08" y="-13.21" font-family="Helvetica,sans-Serif" font-size="10.00" fill="#ffffff">views</text>
</g>
<!-- bookify_app_views_auth&#45;&gt;bookify_app_views -->
<g id="edge9" class="edge">
<title>bookify_app_views_auth&#45;&gt;bookify_app_views</title><style>.edge>path:hover{stroke-width:8}</style>
<path fill="none" stroke="black" d="M891.15,-87.12C883,-83.79 874.38,-80.68 866.08,-78.43 730.72,-41.72 566.13,-28.91 476.68,-24.5"/>
<polygon fill="#a13535" stroke="black" points="476.83,-21 466.68,-24.02 476.5,-27.99 476.83,-21"/>
</g>
<!-- bookify_app_views_providers&#45;&gt;bookify_app_views -->
<g id="edge10" class="edge">
<title>bookify_app_views_providers&#45;&gt;bookify_app_views</title><style>.edge>path:hover{stroke-width:8}</style>
<path fill="none" stroke="black" d="M411.08,-78.38C411.08,-70.17 411.08,-61.16 411.08,-52.8"/>
<polygon fill="#a83838" stroke="black" points="414.58,-52.67 411.08,-42.67 407.58,-52.67 414.58,-52.67"/>
</g>
<!-- config -->
<g id="node12" class="node">
<title>config</title><style>.edge>path:hover{stroke-width:8}</style>
<ellipse fill="#b69d53" stroke="black" cx="27.08" cy="-193.62" rx="27.16" ry="18"/>
<text text-anchor="middle" x="27.08" y="-191.12" font-family="Helvetica,sans-Serif" font-size="10.00" fill="#000000">config</text>
</g>
<!-- config&#45;&gt;bookify_app -->
<g id="edge11" class="edge">
<title>config&#45;&gt;bookify_app</title><style>.edge>path:hover{stroke-width:8}</style>
<path fill="none" stroke="black" d="M43.1,-178.72C58.12,-165.67 80.85,-145.95 98.4,-130.71"/>
<polygon fill="#b69d53" stroke="black" points="100.8,-133.26 106.06,-124.06 96.21,-127.97 100.8,-133.26"/>
</g>
<!-- flask -->
<g id="node13" class="node">
<title>flask</title><style>.edge>path:hover{stroke-width:8}</style>
<ellipse fill="#80f906" stroke="black" cx="479.08" cy="-347.26" rx="27" ry="18"/>
<text text-anchor="middle" x="479.08" y="-344.76" font-family="Helvetica,sans-Serif" font-size="10.00" fill="#000000">flask</text>
</g>
<!-- flask&#45;&gt;bookify_app -->
<g id="edge12" class="edge">
<title>flask&#45;&gt;bookify_app</title><style>.edge>path:hover{stroke-width:8}</style>
<path fill="none" stroke="black" d="M481.58,-329.06C483.18,-314.01 484.13,-291.7 479.08,-273.05"/>
<path fill="none" stroke="black" d="M479.08,-271.05C475.86,-259.15 470.93,-256.69 460.08,-250.84 378.28,-206.71 335.88,-258.96 254.08,-214.84 243.23,-208.98 245.07,-201.85 235.08,-194.62"/>
</g>
<!-- flask&#45;&gt;bookify_app_main -->
<g id="edge13" class="edge">
<title>flask&#45;&gt;bookify_app_main</title><style>.edge>path:hover{stroke-width:8}</style>
<path fill="none" stroke="black" d="M479.08,-271.05C473.29,-247.96 416.1,-224.88 371.73,-210.22"/>
<polygon fill="#80f906" stroke="black" points="372.79,-206.88 362.19,-207.13 370.63,-213.54 372.79,-206.88"/>
</g>
<!-- flask&#45;&gt;bookify_app_main_views -->
<g id="edge14" class="edge">
<title>flask&#45;&gt;bookify_app_main_views</title><style>.edge>path:hover{stroke-width:8}</style>
<path fill="none" stroke="black" d="M479.08,-271.05C475.35,-256.49 658.26,-172.33 750,-131.13"/>
<polygon fill="#80f906" stroke="black" points="751.7,-134.2 759.39,-126.92 748.83,-127.82 751.7,-134.2"/>
</g>
<!-- flask&#45;&gt;bookify_app_views -->
<g id="edge15" class="edge">
<title>flask&#45;&gt;bookify_app_views</title><style>.edge>path:hover{stroke-width:8}</style>
<path fill="none" stroke="black" d="M479.08,-271.05C475.86,-259.15 469.04,-259.3 460.08,-250.84 441.96,-233.72 433.88,-233.25 417.08,-214.84 409.71,-206.76 411.15,-201.99 403.08,-194.62"/>
<path fill="none" stroke="black" d="M403.08,-192.62C393.98,-184.31 394.82,-178.47 384.08,-172.41 317.57,-134.88 264.09,-195.79 216.08,-136.41 199.88,-116.37 200.58,-99.02 216.08,-78.43 232.31,-56.85 299.02,-40.96 349.93,-31.68"/>
<polygon fill="#80f906" stroke="black" points="350.65,-35.11 359.88,-29.91 349.42,-28.21 350.65,-35.11"/>
</g>
<!-- flask&#45;&gt;bookify_app_views_appointment -->
<g id="edge16" class="edge">
<title>flask&#45;&gt;bookify_app_views_appointment</title><style>.edge>path:hover{stroke-width:8}</style>
<path fill="none" stroke="black" d="M506.29,-346.77C599.03,-347.85 899.97,-345.62 953.08,-273.05"/>
<path fill="none" stroke="black" d="M953.08,-271.05C984.41,-228.24 1017.8,-176.99 1039.02,-143.62"/>
<polygon fill="#80f906" stroke="black" points="1042.01,-145.44 1044.4,-135.12 1036.09,-141.69 1042.01,-145.44"/>
</g>
<!-- flask&#45;&gt;bookify_app_views_auth -->
<g id="edge17" class="edge">
<title>flask&#45;&gt;bookify_app_views_auth</title><style>.edge>path:hover{stroke-width:8}</style>
<path fill="none" stroke="black" d="M506.1,-345.45C554.63,-342.99 658.59,-333.09 735.08,-293.26 806.64,-255.99 870.75,-185.02 904.96,-142.69"/>
<polygon fill="#80f906" stroke="black" points="907.9,-144.62 911.4,-134.62 902.43,-140.26 907.9,-144.62"/>
</g>
<!-- flask&#45;&gt;bookify_app_views_location -->
<g id="edge18" class="edge">
<title>flask&#45;&gt;bookify_app_views_location</title><style>.edge>path:hover{stroke-width:8}</style>
<path fill="none" stroke="black" d="M403.08,-192.62C393.98,-184.31 393.62,-180.22 384.08,-172.41 366.86,-158.31 346.3,-144.95 328.1,-134.11"/>
<polygon fill="#80f906" stroke="black" points="329.77,-131.04 319.37,-129 326.23,-137.08 329.77,-131.04"/>
</g>
<!-- flask&#45;&gt;bookify_app_views_providers -->
<g id="edge19" class="edge">
<title>flask&#45;&gt;bookify_app_views_providers</title><style>.edge>path:hover{stroke-width:8}</style>
<path fill="none" stroke="black" d="M403.08,-192.62C390.3,-180.95 390.99,-162.17 395.44,-145.31"/>
<polygon fill="#80f906" stroke="black" points="398.81,-146.26 398.43,-135.67 392.13,-144.19 398.81,-146.26"/>
</g>
<!-- flask&#45;&gt;bookify_app_views_service -->
<g id="edge20" class="edge">
<title>flask&#45;&gt;bookify_app_views_service</title><style>.edge>path:hover{stroke-width:8}</style>
<path fill="none" stroke="black" d="M479.08,-271.05C467.64,-225.45 493.01,-175.2 514.67,-142.8"/>
<polygon fill="#80f906" stroke="black" points="517.56,-144.78 520.36,-134.56 511.8,-140.8 517.56,-144.78"/>
</g>
<!-- flask&#45;&gt;bookify_app_views_user -->
<g id="edge21" class="edge">
<title>flask&#45;&gt;bookify_app_views_user</title><style>.edge>path:hover{stroke-width:8}</style>
<path fill="none" stroke="black" d="M479.08,-271.05C469.99,-233.49 565.16,-170.17 624.83,-134.64"/>
<polygon fill="#80f906" stroke="black" points="626.89,-137.49 633.72,-129.39 623.33,-131.46 626.89,-137.49"/>
</g>
<!-- flask_mail -->
<g id="node15" class="node">
<title>flask_mail</title><style>.edge>path:hover{stroke-width:8}</style>
<ellipse fill="#4cb3b3" stroke="black" cx="296.08" cy="-272.05" rx="39.38" ry="18"/>
<text text-anchor="middle" x="296.08" y="-269.55" font-family="Helvetica,sans-Serif" font-size="10.00" fill="#000000">flask_mail</text>
</g>
<!-- flask&#45;&gt;flask_mail -->
<g id="edge22" class="edge">
<title>flask&#45;&gt;flask_mail</title><style>.edge>path:hover{stroke-width:8}</style>
<path fill="none" stroke="black" d="M456.08,-337.43C429.16,-327.05 383.26,-309.2 344.08,-293.26 340.61,-291.85 337,-290.37 333.4,-288.87"/>
<polygon fill="#80f906" stroke="black" points="334.53,-285.55 323.95,-284.92 331.83,-292.01 334.53,-285.55"/>
</g>
<!-- flask_migrate -->
<g id="node16" class="node">
<title>flask_migrate</title><style>.edge>path:hover{stroke-width:8}</style>
<ellipse fill="#3d5cb8" stroke="black" cx="402.08" cy="-272.05" rx="48.72" ry="18"/>
<text text-anchor="middle" x="402.08" y="-269.55" font-family="Helvetica,sans-Serif" font-size="10.00" fill="#ffffff">flask_migrate</text>
</g>
<!-- flask&#45;&gt;flask_migrate -->
<g id="edge23" class="edge">
<title>flask&#45;&gt;flask_migrate</title><style>.edge>path:hover{stroke-width:8}</style>
<path fill="none" stroke="black" d="M464.23,-332.15C453.52,-321.96 438.82,-307.98 426.4,-296.18"/>
<polygon fill="#80f906" stroke="black" points="428.68,-293.52 419.02,-289.16 423.86,-298.59 428.68,-293.52"/>
</g>
<!-- flask_login -->
<g id="node14" class="node">
<title>flask_login</title><style>.edge>path:hover{stroke-width:8}</style>
<ellipse fill="#2fdb5a" stroke="black" cx="864.08" cy="-422.48" rx="40.74" ry="18"/>
<text text-anchor="middle" x="864.08" y="-419.98" font-family="Helvetica,sans-Serif" font-size="10.00" fill="#000000">flask_login</text>
</g>
<!-- flask_login&#45;&gt;bookify_app -->
<g id="edge24" class="edge">
<title>flask_login&#45;&gt;bookify_app</title><style>.edge>path:hover{stroke-width:8}</style>
<path fill="none" stroke="black" d="M826.01,-416.18C796.34,-412.06 754.1,-406.24 717.08,-401.26 595.35,-384.9 562.32,-394.72 443.08,-365.26 353.39,-343.11 305.74,-365.44 248.08,-293.26 220.48,-258.71 270.9,-220.55 235.08,-194.62"/>
<path fill="none" stroke="black" d="M235.08,-192.62C206.08,-171.96 173.73,-147.22 151.47,-129.92"/>
<polygon fill="#2fdb5a" stroke="black" points="153.5,-127.07 143.46,-123.68 149.2,-132.59 153.5,-127.07"/>
</g>
<!-- flask_login&#45;&gt;bookify_app_models -->
<g id="edge25" class="edge">
<title>flask_login&#45;&gt;bookify_app_models</title><style>.edge>path:hover{stroke-width:8}</style>
<path fill="none" stroke="black" d="M895.1,-410.85C921.33,-399.68 954.46,-379.34 953.08,-348.26"/>
<path fill="none" stroke="black" d="M953.08,-346.26C951.09,-301.67 818.21,-283.79 735.26,-276.97"/>
<polygon fill="#2fdb5a" stroke="black" points="735.4,-273.47 725.15,-276.17 734.85,-280.45 735.4,-273.47"/>
</g>
<!-- flask_login&#45;&gt;bookify_app_views_appointment -->
<g id="edge26" class="edge">
<title>flask_login&#45;&gt;bookify_app_views_appointment</title><style>.edge>path:hover{stroke-width:8}</style>
<path fill="none" stroke="black" d="M953.08,-346.26C952.15,-313.74 927.1,-292.65 953.08,-273.05"/>
</g>
<!-- flask_login&#45;&gt;bookify_app_views_auth -->
<g id="edge27" class="edge">
<title>flask_login&#45;&gt;bookify_app_views_auth</title><style>.edge>path:hover{stroke-width:8}</style>
<path fill="none" stroke="black" d="M953.08,-346.26C952,-321.92 942.74,-317.35 939.08,-293.26 931.46,-243.11 930.2,-184.5 930.35,-146.95"/>
<polygon fill="#2fdb5a" stroke="black" points="933.85,-146.5 930.43,-136.47 926.85,-146.44 933.85,-146.5"/>
</g>
<!-- flask_mail&#45;&gt;bookify_app -->
<g id="edge28" class="edge">
<title>flask_mail&#45;&gt;bookify_app</title><style>.edge>path:hover{stroke-width:8}</style>
<path fill="none" stroke="black" d="M283.7,-254.61C267.69,-233.48 241.13,-199 235.08,-194.62"/>
</g>
<!-- flask_migrate&#45;&gt;bookify_app -->
<g id="edge29" class="edge">
<title>flask_migrate&#45;&gt;bookify_app</title><style>.edge>path:hover{stroke-width:8}</style>
<path fill="none" stroke="black" d="M367.9,-258.99C327.33,-244.52 263.9,-221.41 254.08,-214.84 243.83,-207.98 245.07,-201.85 235.08,-194.62"/>
</g>
<!-- flask_sqlalchemy -->
<g id="node17" class="node">
<title>flask_sqlalchemy</title><style>.edge>path:hover{stroke-width:8}</style>
<ellipse fill="#8553b6" stroke="black" cx="132.08" cy="-193.62" rx="59.41" ry="18"/>
<text text-anchor="middle" x="132.08" y="-191.12" font-family="Helvetica,sans-Serif" font-size="10.00" fill="#ffffff">flask_sqlalchemy</text>
</g>
<!-- flask_sqlalchemy&#45;&gt;bookify_app -->
<g id="edge30" class="edge">
<title>flask_sqlalchemy&#45;&gt;bookify_app</title><style>.edge>path:hover{stroke-width:8}</style>
<path fill="none" stroke="black" d="M130.46,-175.58C129.36,-164.05 127.89,-148.59 126.64,-135.4"/>
<polygon fill="#8553b6" stroke="black" points="130.13,-135.06 125.7,-125.43 123.16,-135.72 130.13,-135.06"/>
</g>
<!-- werkzeug -->
<g id="node18" class="node">
<title>werkzeug</title><style>.edge>path:hover{stroke-width:8}</style>
<ellipse fill="#b6539d" stroke="black" cx="670.08" cy="-422.48" rx="37.85" ry="18"/>
<text text-anchor="middle" x="670.08" y="-419.98" font-family="Helvetica,sans-Serif" font-size="10.00" fill="#ffffff">werkzeug</text>
</g>
<!-- werkzeug&#45;&gt;bookify_app_models -->
<g id="edge31" class="edge">
<title>werkzeug&#45;&gt;bookify_app_models</title><style>.edge>path:hover{stroke-width:8}</style>
<path fill="none" stroke="black" d="M667.29,-404.48C665.45,-389.36 664.33,-366.84 670.08,-348.26"/>
</g>
<!-- werkzeug_security -->
<g id="node19" class="node">
<title>werkzeug_security</title><style>.edge>path:hover{stroke-width:8}</style>
<ellipse fill="#b6539d" stroke="black" cx="567.08" cy="-422.48" rx="47.25" ry="21.43"/>
<text text-anchor="middle" x="567.08" y="-425.48" font-family="Helvetica,sans-Serif" font-size="10.00" fill="#ffffff">werkzeug.</text>
<text text-anchor="middle" x="567.08" y="-414.48" font-family="Helvetica,sans-Serif" font-size="10.00" fill="#ffffff">security</text>
</g>
<!-- werkzeug_security&#45;&gt;bookify_app_models -->
<g id="edge32" class="edge">
<title>werkzeug_security&#45;&gt;bookify_app_models</title><style>.edge>path:hover{stroke-width:8}</style>
<path fill="none" stroke="black" d="M603.88,-408.91C629.53,-397.7 660.77,-378.34 670.08,-348.26"/>
<path fill="none" stroke="black" d="M670.08,-346.26C674.29,-332.66 674.81,-316.94 674.07,-303.56"/>
<polygon fill="#b6539d" stroke="black" points="677.55,-303.1 673.25,-293.42 670.57,-303.67 677.55,-303.1"/>
</g>
</g>
</svg>
